<svg xmlns="http://www.w3.org/2000/svg" xmlns:xlink="http://www.w3.org/1999/xlink" width="346pt" height="245pt" viewBox="0 0 346 244.8"><g id="graph0" class="graph" transform="scale(1 1) rotate(0) translate(4 240.8)"><title>Taskflow</title><polygon fill="#fff" stroke="transparent" points="-4 4 -4 -240.8 342 -240.8 342 4 -4 4"/><g id="clust1" class="cluster"><title>cluster_p0x7ffe212871f0</title><polygon fill="none" stroke="#000" points="8 -8 8 -228.8 180 -228.8 180 -8 8 -8"/><text x="94" y="-212.2" fill="#000" font-family="Times,serif" font-size="14" text-anchor="middle">Taskflow: B</text></g><g id="clust2" class="cluster"><title>cluster_p0x7ffe21287160</title><polygon fill="none" stroke="#000" points="188 -80 188 -228.8 330 -228.8 330 -80 188 -80"/><text x="259" y="-212.2" fill="#000" font-family="Times,serif" font-size="14" text-anchor="middle">Taskflow: A</text></g><g id="node1" class="node"><title>p0x55d9c100b210</title><ellipse cx="58" cy="-34" fill="none" stroke="#000" rx="27" ry="18"/><text x="58" y="-29.8" fill="#000" font-family="Times,serif" font-size="14" text-anchor="middle">B3</text></g><g id="node2" class="node"><title>p0x55d9c100b320</title><ellipse cx="130" cy="-34" fill="none" stroke="#000" rx="27" ry="18"/><text x="130" y="-29.8" fill="#000" font-family="Times,serif" font-size="14" text-anchor="middle">B2</text></g><g id="node3" class="node"><title>p0x55d9c100b430</title><ellipse cx="94" cy="-178" fill="none" stroke="#000" rx="27" ry="18"/><text x="94" y="-173.8" fill="#000" font-family="Times,serif" font-size="14" text-anchor="middle">B1</text></g><g id="node4" class="node"><title>p0x55d9c100b570</title><polygon fill="none" stroke="#00f" points="171.951 -124 16.049 -124 16.049 -88 171.951 -88 171.951 -124"/><text x="94" y="-101.8" fill="#000" font-family="Times,serif" font-size="14" text-anchor="middle">module-A [Taskflow: A]</text></g><g id="edge1" class="edge"><title>p0x55d9c100b430-&gt;p0x55d9c100b570</title><path fill="none" stroke="#000" d="M94,-159.8314C94,-152.131 94,-142.9743 94,-134.4166"/><polygon fill="#000" stroke="#000" points="97.5 -134.413 94 -124.413 90.5 -134.413 97.5 -134.413"/></g><g id="edge3" class="edge"><title>p0x55d9c100b570-&gt;p0x55d9c100b210</title><path fill="none" stroke="#000" d="M84.9157,-87.8314C80.7726,-79.5451 75.7863,-69.5727 71.2374,-60.4748"/><polygon fill="#000" stroke="#000" points="74.311 -58.797 66.709 -51.418 68.05 -61.927 74.311 -58.797"/></g><g id="edge2" class="edge"><title>p0x55d9c100b570-&gt;p0x55d9c100b320</title><path fill="none" stroke="#000" d="M103.0843,-87.8314C107.2274,-79.5451 112.2137,-69.5727 116.7626,-60.4748"/><polygon fill="#000" stroke="#000" points="119.95 -61.927 121.291 -51.418 113.689 -58.797 119.95 -61.927"/></g><g id="node5" class="node"><title>p0x55d9c100ae70</title><ellipse cx="223" cy="-106" fill="none" stroke="#000" rx="27" ry="18"/><text x="223" y="-101.8" fill="#000" font-family="Times,serif" font-size="14" text-anchor="middle">A3</text></g><g id="node6" class="node"><title>p0x55d9c100afa0</title><ellipse cx="295" cy="-106" fill="none" stroke="#000" rx="27" ry="18"/><text x="295" y="-101.8" fill="#000" font-family="Times,serif" font-size="14" text-anchor="middle">A2</text></g><g id="node7" class="node"><title>p0x55d9c100b0d0</title><ellipse cx="259" cy="-178" fill="none" stroke="#000" rx="27" ry="18"/><text x="259" y="-173.8" fill="#000" font-family="Times,serif" font-size="14" text-anchor="middle">A1</text></g><g id="edge5" class="edge"><title>p0x55d9c100b0d0-&gt;p0x55d9c100ae70</title><path fill="none" stroke="#000" d="M250.2854,-160.5708C246.0403,-152.0807 240.8464,-141.6929 236.1337,-132.2674"/><polygon fill="#000" stroke="#000" points="239.237 -130.648 231.634 -123.269 232.976 -133.778 239.237 -130.648"/></g><g id="edge4" class="edge"><title>p0x55d9c100b0d0-&gt;p0x55d9c100afa0</title><path fill="none" stroke="#000" d="M267.7146,-160.5708C271.9597,-152.0807 277.1536,-141.6929 281.8663,-132.2674"/><polygon fill="#000" stroke="#000" points="285.024 -133.778 286.366 -123.269 278.763 -130.648 285.024 -133.778"/></g></g></svg>