<svg xmlns="http://www.w3.org/2000/svg" xmlns:xlink="http://www.w3.org/1999/xlink" width="347pt" height="143pt" viewBox="0 0 347 142.8"><g id="graph0" class="graph" transform="scale(1 1) rotate(0) translate(4 138.8)"><title>Taskflow</title><polygon fill="#fff" stroke="transparent" points="-4 4 -4 -138.8 343 -138.8 343 4 -4 4"/><g id="node1" class="node"><title>A</title><ellipse cx="27" cy="-44" fill="none" stroke="#000" rx="27" ry="18"/><text x="27" y="-39.8" fill="#000" font-family="Times,serif" font-size="14" text-anchor="middle">A</text></g><g id="node2" class="node"><title>B</title><ellipse cx="118" cy="-72" fill="none" stroke="#000" rx="27" ry="18"/><text x="118" y="-67.8" fill="#000" font-family="Times,serif" font-size="14" text-anchor="middle">B</text></g><g id="edge1" class="edge"><title>A-&gt;B</title><path fill="none" stroke="#000" d="M51.8661,-51.6511C61.6764,-54.6697 73.1102,-58.1878 83.6848,-61.4415"/><polygon fill="#000" stroke="#000" points="82.892 -64.859 93.479 -64.455 84.951 -58.169 82.892 -64.859"/></g><g id="node3" class="node"><title>C</title><ellipse cx="118" cy="-18" fill="none" stroke="#000" rx="27" ry="18"/><text x="118" y="-13.8" fill="#000" font-family="Times,serif" font-size="14" text-anchor="middle">C</text></g><g id="edge2" class="edge"><title>A-&gt;C</title><path fill="none" stroke="#000" d="M51.8661,-36.8954C61.5966,-34.1152 72.9244,-30.8787 83.4267,-27.8781"/><polygon fill="#000" stroke="#000" points="84.51 -31.209 93.164 -25.096 82.587 -24.478 84.51 -31.209"/></g><g id="node4" class="node"><title>D</title><polygon fill="#7fffd4" stroke="#000" points="215 -100 188 -82 215 -64 242 -82 215 -100"/><text x="215" y="-77.8" fill="#000" font-family="Times,serif" font-size="14" text-anchor="middle">D</text></g><g id="edge3" class="edge"><title>B-&gt;D</title><path fill="none" stroke="#000" d="M144.5945,-76.5728C150.6313,-77.4893 157.0248,-78.3644 163,-79 168.2056,-79.5537 173.7159,-80.0104 179.1271,-80.3857"/><polygon fill="#000" stroke="#000" points="179.108 -83.891 189.304 -81.011 179.538 -76.904 179.108 -83.891"/></g><g id="node6" class="node"><title>F</title><ellipse cx="215" cy="-18" fill="none" stroke="#000" rx="27" ry="18"/><text x="215" y="-13.8" fill="#000" font-family="Times,serif" font-size="14" text-anchor="middle">F</text></g><g id="edge7" class="edge"><title>C-&gt;F</title><path fill="none" stroke="#000" d="M145.0199,-18C155.1304,-18 166.8016,-18 177.6794,-18"/><polygon fill="#000" stroke="#000" points="177.789 -21.5 187.789 -18 177.788 -14.5 177.789 -21.5"/></g><g id="edge4" class="edge"><title>D-&gt;B</title><path fill="none" stroke="#000" stroke-dasharray="5 2" d="M201.5238,-72.6353C192.9329,-67.2497 181.3226,-61.0098 170,-58.2 163.3002,-56.5374 156.1348,-56.9849 149.3311,-58.4628"/><polygon fill="#000" stroke="#000" points="148.354 -55.102 139.718 -61.239 150.297 -61.827 148.354 -55.102"/><text x="166.5" y="-62.2" fill="#000" font-family="Times,serif" font-size="14" text-anchor="middle">0</text></g><g id="edge5" class="edge"><title>D-&gt;D</title><path fill="none" stroke="#000" stroke-dasharray="5 2" d="M207.3733,-95.2925C204.114,-106.397 206.6563,-118 215,-118 220.7363,-118 223.7305,-112.5158 223.9826,-105.4797"/><polygon fill="#000" stroke="#000" points="227.416 -104.743 222.627 -95.293 220.477 -105.667 227.416 -104.743"/><text x="215" y="-122.2" fill="#000" font-family="Times,serif" font-size="14" text-anchor="middle">1</text></g><g id="node5" class="node"><title>E</title><ellipse cx="312" cy="-82" fill="none" stroke="#000" rx="27" ry="18"/><text x="312" y="-77.8" fill="#000" font-family="Times,serif" font-size="14" text-anchor="middle">E</text></g><g id="edge6" class="edge"><title>D-&gt;E</title><path fill="none" stroke="#000" stroke-dasharray="5 2" d="M242.0199,-82C252.1304,-82 263.8016,-82 274.6794,-82"/><polygon fill="#000" stroke="#000" points="274.789 -85.5 284.789 -82 274.788 -78.5 274.789 -85.5"/><text x="263.5" y="-86.2" fill="#000" font-family="Times,serif" font-size="14" text-anchor="middle">2</text></g></g></svg>