<svg xmlns="http://www.w3.org/2000/svg" xmlns:xlink="http://www.w3.org/1999/xlink" width="540" height="317pt" viewBox="0 0 405.44 316.8"><g id="graph0" class="graph" transform="scale(1 1) rotate(0) translate(4 312.8)"><title>Taskflow</title><polygon fill="#fff" stroke="transparent" points="-4 4 -4 -312.8 401.44 -312.8 401.44 4 -4 4"/><g id="clust1" class="cluster"><title>cluster_p0x55b2191178a8</title><polygon fill="none" stroke="#a020f0" points="111.72 -8 111.72 -300.8 285.72 -300.8 285.72 -8 111.72 -8"/><text x="198.72" y="-284.2" fill="#000" font-family="Times,serif" font-size="14" text-anchor="middle">cudaFlow: saxpy</text></g><g id="node1" class="node"><title>p0x55b219117698</title><ellipse cx="50.72" cy="-106" fill="none" stroke="#000" rx="50.941" ry="18"/><text x="50.72" y="-101.8" fill="#000" font-family="Times,serif" font-size="14" text-anchor="middle">allocate_x</text></g><g id="node2" class="node"><title>p0x55b2191178a8</title><polygon fill="#0ff" stroke="#000" points="225.72 -52 222.72 -56 201.72 -56 198.72 -52 171.72 -52 171.72 -16 225.72 -16 225.72 -52"/><text x="198.72" y="-29.8" fill="#000" font-family="Times,serif" font-size="14" text-anchor="middle">saxpy</text></g><g id="edge1" class="edge"><title>p0x55b219117698-&gt;p0x55b2191178a8</title><path fill="none" stroke="#000" d="M80.6698,-91.4297C104.1873,-79.9888 137.0374,-64.0076 162.115,-51.8077"/><polygon fill="#000" stroke="#000" points="163.849 -54.856 171.31 -47.334 160.786 -48.562 163.849 -54.856"/></g><g id="node3" class="node"><title>p0x55b2191177a0</title><ellipse cx="346.72" cy="-106" fill="none" stroke="#000" rx="50.941" ry="18"/><text x="346.72" y="-101.8" fill="#000" font-family="Times,serif" font-size="14" text-anchor="middle">allocate_y</text></g><g id="edge2" class="edge"><title>p0x55b2191177a0-&gt;p0x55b2191178a8</title><path fill="none" stroke="#000" d="M316.7698,-91.4297C293.2522,-79.9888 260.4022,-64.0076 235.3246,-51.8077"/><polygon fill="#000" stroke="#000" points="236.653 -48.562 226.13 -47.334 233.591 -54.856 236.653 -48.562"/></g><g id="node4" class="node"><title>p0x7f2870401a50</title><ellipse cx="242.72" cy="-250" fill="none" stroke="#000" rx="35.359" ry="18"/><text x="242.72" y="-245.8" fill="#000" font-family="Times,serif" font-size="14" text-anchor="middle">h2d_x</text></g><g id="node5" class="node"><title>p0x7f2870402bc0</title><polygon fill="#000" stroke="#fff" points="225.72 -196 175.72 -196 171.72 -192 171.72 -160 221.72 -160 225.72 -164 225.72 -196"/><polyline fill="none" stroke="#fff" points="221.72 -192 171.72 -192"/><polyline fill="none" stroke="#fff" points="221.72 -192 221.72 -160"/><polyline fill="none" stroke="#fff" points="221.72 -192 225.72 -196"/><text x="198.72" y="-173.8" fill="#fff" font-family="Times,serif" font-size="14" text-anchor="middle">saxpy</text></g><g id="edge3" class="edge"><title>p0x7f2870401a50-&gt;p0x7f2870402bc0</title><path fill="none" stroke="#000" d="M232.0686,-232.5708C226.9418,-224.1815 220.6827,-213.9392 214.9775,-204.6035"/><polygon fill="#000" stroke="#000" points="217.933 -202.728 209.732 -196.021 211.96 -206.379 217.933 -202.728"/></g><g id="node7" class="node"><title>p0x7f2870402310</title><ellipse cx="154.72" cy="-106" fill="none" stroke="#000" rx="35.359" ry="18"/><text x="154.72" y="-101.8" fill="#000" font-family="Times,serif" font-size="14" text-anchor="middle">d2h_x</text></g><g id="edge7" class="edge"><title>p0x7f2870402bc0-&gt;p0x7f2870402310</title><path fill="none" stroke="#000" d="M187.6167,-159.8314C182.4996,-151.4579 176.3302,-141.3626 170.7234,-132.1878"/><polygon fill="#000" stroke="#000" points="173.565 -130.125 165.364 -123.418 167.592 -133.776 173.565 -130.125"/></g><g id="node8" class="node"><title>p0x7f2870402780</title><ellipse cx="242.72" cy="-106" fill="none" stroke="#000" rx="35.359" ry="18"/><text x="242.72" y="-101.8" fill="#000" font-family="Times,serif" font-size="14" text-anchor="middle">d2h_y</text></g><g id="edge8" class="edge"><title>p0x7f2870402bc0-&gt;p0x7f2870402780</title><path fill="none" stroke="#000" d="M209.8228,-159.8314C214.94,-151.4579 221.1093,-141.3626 226.7162,-132.1878"/><polygon fill="#000" stroke="#000" points="229.848 -133.776 232.076 -123.418 223.875 -130.125 229.848 -133.776"/></g><g id="node6" class="node"><title>p0x7f2870401eb0</title><ellipse cx="154.72" cy="-250" fill="none" stroke="#000" rx="35.359" ry="18"/><text x="154.72" y="-245.8" fill="#000" font-family="Times,serif" font-size="14" text-anchor="middle">h2d_y</text></g><g id="edge4" class="edge"><title>p0x7f2870401eb0-&gt;p0x7f2870402bc0</title><path fill="none" stroke="#000" d="M165.371,-232.5708C170.4978,-224.1815 176.7569,-213.9392 182.4621,-204.6035"/><polygon fill="#000" stroke="#000" points="185.479 -206.379 187.707 -196.021 179.506 -202.728 185.479 -206.379"/></g><g id="edge5" class="edge"><title>p0x7f2870402310-&gt;p0x55b2191178a8</title><path fill="none" stroke="#000" d="M165.371,-88.5708C170.4978,-80.1815 176.7569,-69.9392 182.4621,-60.6035"/><polygon fill="#000" stroke="#000" points="185.479 -62.379 187.707 -52.021 179.506 -58.728 185.479 -62.379"/></g><g id="edge6" class="edge"><title>p0x7f2870402780-&gt;p0x55b2191178a8</title><path fill="none" stroke="#000" d="M232.0686,-88.5708C226.9418,-80.1815 220.6827,-69.9392 214.9775,-60.6035"/><polygon fill="#000" stroke="#000" points="217.933 -58.728 209.732 -52.021 211.96 -62.379 217.933 -58.728"/></g></g></svg>