<svg xmlns="http://www.w3.org/2000/svg" xmlns:xlink="http://www.w3.org/1999/xlink" width="316pt" height="422pt" viewBox="0 0 316 421.6"><g id="graph0" class="graph" transform="scale(1 1) rotate(0) translate(4 417.6)"><title>Taskflow</title><polygon fill="#fff" stroke="transparent" points="-4 4 -4 -417.6 312 -417.6 312 4 -4 4"/><g id="clust1" class="cluster"><title>cluster_p0x7ffc8dea6f60</title><polygon fill="none" stroke="#000" points="8 -8 8 -405.6 300 -405.6 300 -8 8 -8"/><text x="154" y="-389" fill="#000" font-family="Times,serif" font-size="14" text-anchor="middle">Main taskflow</text></g><g id="clust2" class="cluster"><title>cluster_p0x56512e2a4730</title><polygon fill="none" stroke="#00f" points="78 -80 78 -372.8 292 -372.8 292 -80 78 -80"/><text x="185" y="-356.2" fill="#000" font-family="Times,serif" font-size="14" text-anchor="middle">Subflow: B</text></g><g id="node1" class="node"><title>p0x56512e2a43c0</title><ellipse cx="43" cy="-178" fill="none" stroke="#000" rx="27" ry="18"/><text x="43" y="-173.8" fill="#000" font-family="Times,serif" font-size="14" text-anchor="middle">A</text></g><g id="node2" class="node"><title>p0x56512e2a4730</title><ellipse cx="115" cy="-106" fill="none" stroke="#000" rx="27" ry="18"/><text x="115" y="-101.8" fill="#000" font-family="Times,serif" font-size="14" text-anchor="middle">B</text></g><g id="edge1" class="edge"><title>p0x56512e2a43c0-&gt;p0x56512e2a4730</title><path fill="none" stroke="#000" d="M58.2693,-162.7307C68.197,-152.803 81.3153,-139.6847 92.4363,-128.5637"/><polygon fill="#000" stroke="#000" points="95.156 -130.793 99.753 -121.247 90.207 -125.844 95.156 -130.793"/></g><g id="node3" class="node"><title>p0x56512e2a44f0</title><ellipse cx="43" cy="-106" fill="none" stroke="#000" rx="27" ry="18"/><text x="43" y="-101.8" fill="#000" font-family="Times,serif" font-size="14" text-anchor="middle">C</text></g><g id="edge2" class="edge"><title>p0x56512e2a43c0-&gt;p0x56512e2a44f0</title><path fill="none" stroke="#000" d="M43,-159.8314C43,-152.131 43,-142.9743 43,-134.4166"/><polygon fill="#000" stroke="#000" points="46.5 -134.413 43 -124.413 39.5 -134.413 46.5 -134.413"/></g><g id="node4" class="node"><title>p0x56512e2a4620</title><ellipse cx="79" cy="-34" fill="none" stroke="#000" rx="27" ry="18"/><text x="79" y="-29.8" fill="#000" font-family="Times,serif" font-size="14" text-anchor="middle">D</text></g><g id="edge4" class="edge"><title>p0x56512e2a4730-&gt;p0x56512e2a4620</title><path fill="none" stroke="#000" d="M106.2854,-88.5708C102.0403,-80.0807 96.8464,-69.6929 92.1337,-60.2674"/><polygon fill="#000" stroke="#000" points="95.237 -58.648 87.634 -51.269 88.976 -61.778 95.237 -58.648"/></g><g id="edge3" class="edge"><title>p0x56512e2a44f0-&gt;p0x56512e2a4620</title><path fill="none" stroke="#000" d="M51.7146,-88.5708C55.9597,-80.0807 61.1536,-69.6929 65.8663,-60.2674"/><polygon fill="#000" stroke="#000" points="69.024 -61.778 70.366 -51.269 62.763 -58.648 69.024 -61.778"/></g><g id="node5" class="node"><title>p0x7f152c000b20</title><ellipse cx="185" cy="-322" fill="none" stroke="#000" rx="27" ry="18"/><text x="185" y="-317.8" fill="#000" font-family="Times,serif" font-size="14" text-anchor="middle">B0</text></g><g id="node6" class="node"><title>p0x7f152c000c50</title><ellipse cx="113" cy="-250" fill="none" stroke="#000" rx="27" ry="18"/><text x="113" y="-245.8" fill="#000" font-family="Times,serif" font-size="14" text-anchor="middle">B1</text></g><g id="edge5" class="edge"><title>p0x7f152c000b20-&gt;p0x7f152c000c50</title><path fill="none" stroke="#000" d="M169.7307,-306.7307C159.803,-296.803 146.6847,-283.6847 135.5637,-272.5637"/><polygon fill="#000" stroke="#000" points="137.793 -269.844 128.247 -265.247 132.844 -274.793 137.793 -269.844"/></g><g id="node7" class="node"><title>p0x7f152c000d80</title><ellipse cx="185" cy="-250" fill="none" stroke="#000" rx="27" ry="18"/><text x="185" y="-245.8" fill="#000" font-family="Times,serif" font-size="14" text-anchor="middle">B2</text></g><g id="edge6" class="edge"><title>p0x7f152c000b20-&gt;p0x7f152c000d80</title><path fill="none" stroke="#000" d="M185,-303.8314C185,-296.131 185,-286.9743 185,-278.4166"/><polygon fill="#000" stroke="#000" points="188.5 -278.413 185 -268.413 181.5 -278.413 188.5 -278.413"/></g><g id="node8" class="node"><title>p0x7f152c000ec0</title><ellipse cx="257" cy="-250" fill="none" stroke="#000" rx="27" ry="18"/><text x="257" y="-245.8" fill="#000" font-family="Times,serif" font-size="14" text-anchor="middle">B3</text></g><g id="edge7" class="edge"><title>p0x7f152c000b20-&gt;p0x7f152c000ec0</title><path fill="none" stroke="#000" d="M200.2693,-306.7307C210.197,-296.803 223.3153,-283.6847 234.4363,-272.5637"/><polygon fill="#000" stroke="#000" points="237.156 -274.793 241.753 -265.247 232.207 -269.844 237.156 -274.793"/></g><g id="node9" class="node"><title>p0x7f152c000fd0</title><ellipse cx="150" cy="-178" fill="none" stroke="#000" rx="27" ry="18"/><text x="150" y="-173.8" fill="#000" font-family="Times,serif" font-size="14" text-anchor="middle">B4</text></g><g id="edge8" class="edge"><title>p0x7f152c000c50-&gt;p0x7f152c000fd0</title><path fill="none" stroke="#000" d="M121.7685,-232.937C126.1279,-224.4537 131.4953,-214.0092 136.3753,-204.513"/><polygon fill="#000" stroke="#000" points="139.58 -205.935 141.037 -195.441 133.354 -202.735 139.58 -205.935"/></g><g id="edge9" class="edge"><title>p0x7f152c000d80-&gt;p0x7f152c000fd0</title><path fill="none" stroke="#000" d="M176.5275,-232.5708C172.4003,-224.0807 167.3507,-213.6929 162.7689,-204.2674"/><polygon fill="#000" stroke="#000" points="165.914 -202.732 158.394 -195.269 159.619 -205.793 165.914 -202.732"/></g><g id="edge10" class="edge"><title>p0x7f152c000ec0-&gt;p0x7f152c000fd0</title><path fill="none" stroke="#000" d="M237.8705,-237.1278C221.161,-225.884 196.6943,-209.4204 177.8188,-196.7192"/><polygon fill="#000" stroke="#000" points="179.575 -193.682 169.325 -191.004 175.667 -199.49 179.575 -193.682"/></g><g id="edge11" class="edge"><title>p0x7f152c000fd0-&gt;p0x56512e2a4730</title><path fill="none" stroke="#000" d="M141.5275,-160.5708C137.4003,-152.0807 132.3507,-141.6929 127.7689,-132.2674"/><polygon fill="#000" stroke="#000" points="130.914 -130.732 123.394 -123.269 124.619 -133.793 130.914 -130.732"/></g></g></svg>